PathFileType	4	(X/Y/Z)	./resultDataOpenSim/trcMotMarkerGrf/sub09/qtm-15-02.trc
DataRate	CameraRate	NumFrames	NumMarkers	Units	OrigDataRate	OrigDataStartFrame	OrigNumFrames
250.000000	250.000000	12	24	m	250.000000	387	515
Frame#	Time	L.Toe.Tip			R.Toe.Tip			L.Ankle.Lat			R.Ankle.Lat			L.Ankle.Med			R.Ankle.Med			L.Heel			R.Heel			L.Knee.Lat			R.Knee.Lat			L.Knee.Med			R.Knee.Med			L.Thigh.Upper			R.Thigh.Upper			L.ASIS			R.ASIS			V.Sacral			L.Acromium			R.Acromium			C7			L.Elbow			R.Elbow			L.Wrist.Lat			R.Wrist.Lat
		X1	Y1	Z1	X2	Y2	Z2	X3	Y3	Z3	X4	Y4	Z4	X5	Y5	Z5	X6	Y6	Z6	X7	Y7	Z7	X8	Y8	Z8	X9	Y9	Z9	X10	Y10	Z10	X11	Y11	Z11	X12	Y12	Z12	X13	Y13	Z13	X14	Y14	Z14	X15	Y15	Z15	X16	Y16	Z16	X17	Y17	Z17	X18	Y18	Z18	X19	Y19	Z19	X20	Y20	Z20	X21	Y21	Z21	X22	Y22	Z22	X23	Y23	Z23	X24	Y24	Z24

387	1.544	0.81531727	0.18868665	-0.055406312	1.1166197	0.040205011	0.057844075	0.78759747	0.33951673	-0.092325004	0.97152623	0.060811554	0.10173354	0.80131339	0.32185455	0.0042651779	0.98190456	0.10088089	0.0096027431	0.71687481	0.38125809	-0.047044554	0.89906082	0.045073921	0.05415923	1.1565638	0.49447211	-0.10052499	1.1142317	0.49240305	0.17277473	1.1650899	0.48502859	0.029422899	1.0895706	0.48855449	0.047274441	0.97936384	0.86173093	-0.11917899	1.001255	0.88447935	0.2523865	1.0618531	0.94625315	-0.067027833	1.0812223	0.96128486	0.17083323	0.91115266	1.0247306	0.060669924	1.1165821	1.395002	-0.12253751	1.1180817	1.4117091	0.20930561	1.0528613	1.461606	0.044548126	0.92083348	1.0832314	-0.17989721	0.92971121	1.1064071	0.31498657	1.0279884	0.83947691	-0.2085217	1.0385646	0.85483731	0.32960392
388	1.548	0.83212446	0.18598243	-0.055040793	1.1167785	0.040238442	0.057918458	0.80013651	0.33580912	-0.091992739	0.97197954	0.061317298	0.1015384	0.81432922	0.31835706	0.0044234023	0.98245357	0.10153798	0.0095663484	0.72812561	0.37557614	-0.046535063	0.89929825	0.045987775	0.053904948	1.1658741	0.49846486	-0.10026246	1.1152908	0.49276531	0.17307319	1.169583	0.4882022	0.028408107	1.0913555	0.48888141	0.04796912	0.98478969	0.86416213	-0.11957611	1.0055771	0.88592275	0.2521501	1.0669459	0.94880629	-0.067032416	1.0859617	0.96302851	0.17087456	0.91684587	1.0263279	0.060406912	1.1205343	1.3972087	-0.12274304	1.1224608	1.4139337	0.20907658	1.0570555	1.4637203	0.044438125	0.92471396	1.0855235	-0.17981877	0.93472733	1.1082848	0.31504082	1.031544	0.84169885	-0.20887152	1.0442703	0.85698287	0.3290701
389	1.552	0.84915741	0.18314376	-0.054690045	1.1169287	0.040273848	0.058005123	0.81279251	0.33183596	-0.09167245	0.97225589	0.061890683	0.10143127	0.82750802	0.31461433	0.0046556244	0.98298333	0.10221285	0.0095522802	0.73956937	0.36959372	-0.046001097	0.89953146	0.046936992	0.053679935	1.1749951	0.50240395	-0.10000383	1.1164568	0.49311255	0.17336613	1.1756596	0.49175858	0.027755715	1.0931732	0.48912952	0.048566257	0.99048621	0.8665516	-0.12007574	1.0098999	0.88733781	0.25189657	1.0720419	0.95131072	-0.067022785	1.0906876	0.96474009	0.17093242	0.92231264	1.0279053	0.060168789	1.1244977	1.3993764	-0.12292992	1.1268211	1.4161172	0.20885896	1.0612353	1.4657885	0.044332786	0.92861669	1.08777	-0.17975592	0.9397255	1.1101161	0.31511354	1.0351219	0.84388336	-0.20921249	1.0499622	0.8590853	0.32854069
390	1.556	0.86641264	0.18019943	-0.054347697	1.1170752	0.040315117	0.05810174	0.82555196	0.32757516	-0.09130451	0.97239019	0.062524147	0.10139498	0.84087294	0.31063907	0.0050715276	0.98350979	0.10290022	0.0095528915	0.75117553	0.36334122	-0.045430501	0.89976007	0.047913993	0.053480817	1.1839287	0.50628227	-0.099758275	1.117733	0.49345729	0.17365968	1.1838242	0.49563779	0.027624164	1.0949401	0.48933676	0.048997926	0.99641435	0.8688944	-0.12065536	1.0142164	0.88871625	0.25161093	1.0771455	0.95375813	-0.06700431	1.095405	0.96641873	0.17100727	0.92745547	1.0294752	0.059979169	1.1284733	1.4015009	-0.12310466	1.1311574	1.4182538	0.20865433	1.0653993	1.4678082	0.044225536	0.93253864	1.0899729	-0.17971166	0.94465998	1.1118859	0.31515755	1.0387243	0.84602126	-0.2095462	1.0556321	0.86114432	0.32801559
391	1.56	0.88380569	0.17716632	-0.053972178	1.1172198	0.040362697	0.058206578	0.83843925	0.32302431	-0.090882812	0.97248368	0.063189263	0.10138874	0.8544323	0.30645084	0.0057044941	0.98404634	0.10359181	0.009561419	0.76293287	0.35684351	-0.04483999	0.89998195	0.048910185	0.053302891	1.1927239	0.51007956	-0.099521366	1.1191753	0.49379074	0.17393169	1.193429	0.49960541	0.027888428	1.0966661	0.48953795	0.049292976	1.0024045	0.87118342	-0.1212316	1.0184922	0.89005603	0.25129248	1.0822645	0.95614158	-0.066979997	1.1001178	0.96806689	0.17109445	0.93233314	1.0310183	0.059826078	1.1324635	1.403574	-0.12327373	1.1354731	1.4203391	0.20845699	1.0695462	1.4697793	0.044112722	0.93647651	1.0921239	-0.17968305	0.94952724	1.1135907	0.315157	1.0423519	0.84810657	-0.20987357	1.0612719	0.86316292	0.32749472
392	1.564	0.9012454	0.1740535	-0.053532077	1.1173609	0.040414775	0.058316882	0.85148132	0.31820089	-0.090430944	0.97259651	0.063866453	0.1013926	0.86815793	0.30207125	0.0064753862	0.98460488	0.1042775	0.0095744981	0.77486105	0.35010309	-0.0442426	0.90019753	0.049915508	0.05314269	1.2014432	0.51378109	-0.099290657	1.1208452	0.49411033	0.17414792	1.2034615	0.50349828	0.028298578	1.098376	0.48977546	0.049516723	1.0083013	0.87341468	-0.12172545	1.0226792	0.89136675	0.25096358	1.0874051	0.95845772	-0.066949552	1.1048251	0.96968571	0.17118991	0.93707711	1.0325255	0.059677506	1.1364688	1.4055898	-0.12344095	1.1397721	1.4223753	0.20826268	1.0736769	1.4716985	0.043996571	0.94042842	1.0942097	-0.17966939	0.95439583	1.1152481	0.31516025	1.0460061	0.85013682	-0.21019534	1.0668835	0.86514128	0.32697943
393	1.568	0.91870262	0.17087371	-0.053032448	1.1174967	0.04046855	0.0584289	0.86467172	0.31314912	-0.089949886	0.97274611	0.064545278	0.10140726	0.88204146	0.29751116	0.0072532991	0.9852094	0.10495375	0.0095937882	0.78698348	0.3431141	-0.043621457	0.90041955	0.050918345	0.05300826	1.2100974	0.51738084	-0.09907449	1.1226968	0.49443714	0.17429959	1.2131546	0.50726521	0.028648813	1.1000723	0.49007279	0.049732418	1.0140898	0.87558643	-0.1221186	1.0267628	0.89265993	0.25065082	1.0925695	0.9607046	-0.066911196	1.1095244	0.9712724	0.1712906	0.94178222	1.0340134	0.059510707	1.1404903	1.4075529	-0.12361203	1.1440571	1.4243765	0.20807397	1.0777967	1.473563	0.043881739	0.94438711	1.0962315	-0.17969448	0.95931902	1.1168728	0.31521325	1.0496865	0.85210956	-0.21051056	1.0724835	0.86707144	0.32647275
394	1.572	0.93620847	0.16763768	-0.052499016	1.1176299	0.040521823	0.058538503	0.87797431	0.30792429	-0.089411279	0.97293513	0.065221032	0.10143632	0.8961167	0.29277938	0.0079517598	0.98586453	0.10561955	0.0096448698	0.7993123	0.33587992	-0.042951286	0.90068084	0.051905895	0.05292904	1.2186306	0.52086989	-0.098878946	1.1245422	0.49479843	0.17442609	1.2222715	0.51091197	0.02887769	1.1017443	0.49042586	0.049975064	1.0198426	0.87769629	-0.12244929	1.030799	0.89393788	0.25036312	1.0977574	0.96288286	-0.066864919	1.1142155	0.97282317	0.17139256	0.94648795	1.0354943	0.059318974	1.1445311	1.4094758	-0.12379867	1.1483384	1.4263626	0.20789424	1.0819111	1.475375	0.043774415	0.94834363	1.0982026	-0.17978885	0.9642464	1.1184489	0.31528688	1.053392	0.85402075	-0.21081983	1.0780877	0.86894349	0.3259771
395	1.576	0.95378046	0.16434393	-0.05193371	1.1177695	0.040573467	0.05864096	0.89135831	0.30256187	-0.088799316	0.97315385	0.065894061	0.10147979	0.91039786	0.28790482	0.0085641202	0.98653308	0.10627589	0.0097796342	0.81185284	0.32841477	-0.042224491	0.90102484	0.05286554	0.052947025	1.2269709	0.52423411	-0.098697212	1.1261969	0.49521007	0.17458731	1.2308937	0.51445587	0.029011781	1.1033736	0.49082231	0.050229896	1.0256096	0.87974524	-0.12277918	1.0348697	0.89519518	0.25009474	1.1029659	0.96499817	-0.066814604	1.1189043	0.97433751	0.17149392	0.95120537	1.0369585	0.059102179	1.1485911	1.4113624	-0.12400575	1.152623	1.4283359	0.20772452	1.0860215	1.4771323	0.043680123	0.95230554	1.1001253	-0.17993958	0.96909357	1.119948	0.31532085	1.0571234	0.85586765	-0.21112747	1.083698	0.87075517	0.32549391
396	1.58	0.97139579	0.16099232	-0.051307159	1.1179303	0.040621997	0.058730585	0.90482313	0.2970746	-0.088131602	0.9733842	0.066562861	0.10153624	0.92493346	0.28291492	0.0091046711	0.98717737	0.10694135	0.010019932	0.82460297	0.32073695	-0.041440487	0.90146083	0.053789096	0.05306791	1.2350975	0.5274611	-0.098515954	1.1276366	0.49567241	0.17481292	1.2391202	0.51790053	0.029076993	1.1049407	0.49125056	0.050456766	1.031394	0.88173942	-0.12315175	1.0390043	0.89642512	0.24983687	1.1081876	0.96705489	-0.066765954	1.1236004	0.97581552	0.17159588	0.9559263	1.0383832	0.05886076	1.1526626	1.4131983	-0.1242118	1.1568944	1.4302659	0.20756806	1.0901249	1.478825	0.043593305	0.95630196	1.1019862	-0.18009004	0.97386249	1.121367	0.3153114	1.0608815	0.85765099	-0.21143622	1.0893096	0.87251201	0.32502526
397	1.584	0.98906224	0.15759627	-0.050611386	1.1181281	0.04066325	0.058800473	0.91839478	0.29146763	-0.087431495	0.97361261	0.067223598	0.10160557	0.93980855	0.27781203	0.0095740324	0.98773059	0.10762702	0.010301027	0.83756162	0.31286154	-0.040598389	0.90191782	0.05468129	0.053210631	1.2430586	0.53054127	-0.098326547	1.1289651	0.49616398	0.17508414	1.2470193	0.52123089	0.029091491	1.106443	0.49169238	0.050638637	1.0371809	0.88368296	-0.12356251	1.0431818	0.89762333	0.24958058	1.1134145	0.96904927	-0.066721534	1.1283069	0.97725306	0.17169833	0.96060837	1.0397437	0.058595139	1.1567389	1.4149633	-0.12438324	1.1611264	1.4321124	0.20742882	1.0942204	1.4804511	0.043497595	0.96036009	1.1037785	-0.1801964	0.97862167	1.122727	0.3153035	1.0646631	0.85937277	-0.21174371	1.0949205	0.8742204	0.32457118
398	1.588	1.006838	0.15417097	-0.049887118	1.1183601	0.040689754	0.058847325	0.9321005	0.28574177	-0.086698289	0.97383572	0.067876652	0.10168818	0.95488656	0.27260823	0.010024771	0.98809272	0.10829247	0.010524551	0.85074555	0.3047966	-0.039719179	0.90228261	0.055556054	0.053247297	1.2509233	0.53346658	-0.098128102	1.1302862	0.49664577	0.17535895	1.2546442	0.52442246	0.029075958	1.1078982	0.49212456	0.050790211	1.0429575	0.88557458	-0.12397832	1.047384	0.89878973	0.249318	1.1186456	0.97097541	-0.066678613	1.1330188	0.9786448	0.17180137	0.96517591	1.0410177	0.058306144	1.1608235	1.4166487	-0.12451051	1.1653149	1.4338624	0.20730368	1.0983119	1.4820213	0.043387313	0.96447757	1.1055146	-0.18026004	0.9834098	1.1240425	0.31532516	1.0684652	0.86103302	-0.21204743	1.1005295	0.8758823	0.32412748
